<?xml version="1.0" encoding="UTF-8"?>
<svg xmlns="http://www.w3.org/2000/svg" xmlns:xlink="http://www.w3.org/1999/xlink" width="32px" height="32px" viewBox="0 0 32 32" version="1.1">
<g id="surface1">
<path style="fill-rule:nonzero;fill:rgb(100%,100%,100%);fill-opacity:1;stroke-width:1;stroke-linecap:butt;stroke-linejoin:miter;stroke:rgb(100%,100%,100%);stroke-opacity:1;stroke-miterlimit:4;" d="M 433.604697 66.977715 C 408.868086 42.3102 376.185356 28.767251 341.291533 28.767251 C 306.39771 28.767251 273.576787 42.379297 248.909272 67.115908 L 235.988193 79.967891 L 222.928921 66.908618 C 198.19231 42.172007 165.30229 28.490864 130.408467 28.490864 C 95.58374 28.490864 62.831914 42.10291 38.233496 66.701328 C 13.496885 91.368843 -0.115161 124.189766 0.0230322 159.083589 C 0.0230322 193.977412 13.704175 226.729238 38.371689 251.396753 L 226.176465 439.201528 C 228.802139 441.827202 232.326069 443.209136 235.711807 443.209136 C 239.097544 443.209136 242.621475 441.896299 245.178052 439.270625 L 433.397407 251.811333 C 458.134019 227.074722 471.676968 194.322896 471.676968 159.429072 C 471.815161 124.535249 458.272212 91.714326 433.604697 66.977715 Z M 414.39582 232.671553 L 235.711807 410.733696 L 57.373276 232.395166 C 37.818916 212.771709 26.970737 186.791357 26.970737 159.083589 C 26.970737 131.37582 37.680723 105.395469 57.30418 85.910205 C 76.789443 66.424941 102.769795 55.576763 130.408467 55.576763 C 158.116235 55.576763 184.23478 66.424941 203.789141 85.979302 L 226.383755 108.573916 C 231.704199 113.89436 240.203091 113.89436 245.523535 108.573916 L 267.910859 86.186592 C 287.534316 66.632231 313.583765 55.784053 341.222437 55.784053 C 368.792012 55.784053 394.772363 66.632231 414.39582 86.117495 C 434.019277 105.671855 444.729263 131.721304 444.729263 159.429072 C 444.798359 187.067744 434.019277 213.117192 414.39582 232.671553 Z M 414.39582 232.671553 " transform="matrix(0.0565331,0,0,0.0565331,2.666667,2.666667)"/>
</g>
</svg>
