<?xml version="1.0" encoding="UTF-8"?>
<svg xmlns="http://www.w3.org/2000/svg" xmlns:xlink="http://www.w3.org/1999/xlink" width="32px" height="32px" viewBox="0 0 32 32" version="1.1">
<g id="surface1">
<path style="fill-rule:nonzero;fill:rgb(92.941176%,11.372549%,11.372549%);fill-opacity:1;stroke-width:1;stroke-linecap:butt;stroke-linejoin:miter;stroke:rgb(92.941176%,11.372549%,11.372549%);stroke-opacity:1;stroke-miterlimit:4;" d="M 433.582584 67.023921 C 408.880469 42.321806 376.174638 28.790344 341.280741 28.790344 C 306.386843 28.790344 273.623432 42.379387 248.921316 67.081502 L 236.023242 79.979576 L 222.894845 66.90876 C 198.19273 42.206645 165.314157 28.502441 130.420259 28.502441 C 95.583943 28.502441 62.820531 42.091483 38.175996 66.678437 C 13.473881 91.380553 -0.115161 124.201545 0 159.095442 C 0 193.989339 13.704204 226.695171 38.406319 251.397286 L 226.176944 439.225492 C 228.825656 441.816623 232.280497 443.198559 235.677758 443.198559 C 239.075019 443.198559 242.587441 441.874203 245.178572 439.283072 L 433.409842 251.800351 C 458.111958 227.098235 471.701 194.277243 471.701 159.383346 C 471.816161 124.489448 458.2847 91.726037 433.582584 67.023921 Z M 414.408215 232.683562 L 235.677758 410.723051 L 57.407946 232.395659 C 37.772932 212.818225 27.005343 186.791753 27.005343 159.095442 C 27.005343 131.399131 37.715351 105.37266 57.292785 85.910387 C 76.812638 66.390534 102.781529 55.622945 130.420259 55.622945 C 158.116571 55.622945 184.200622 66.390534 203.778057 86.025549 L 226.407267 108.597178 C 231.70469 113.894602 240.226632 113.894602 245.524056 108.597178 L 267.922943 86.198291 C 287.500378 66.620857 313.584429 55.795687 341.22316 55.795687 C 368.80431 55.795687 394.7732 66.620857 414.408215 86.083129 C 433.985649 105.718144 444.695657 131.687035 444.695657 159.383346 C 444.810818 187.079657 433.985649 213.106128 414.408215 232.683562 Z M 414.408215 232.683562 " transform="matrix(0.0678396,0,0,0.0678396,0,0)"/>
</g>
</svg>
